# xmcd
#
# Track frame offsets:
#	150
#	2641
#	20435
#	36634
#	57870
#	79395
#	99300
#	117664
#	121941
#	138127
#	158906
#	175579
#	193396
#
# Disc length: 2805 seconds
#
# Revision: 2
# Processed by: cddbd v1.5.2PL0 Copyright (c) Steve Scherf et al.
# Submitted via: EasyCDDAExtractor 2011.3.0.0
#
DISCID=ac0af30d
DTITLE=리쌍 - Asura Balbalta
DYEAR=2011
DGENRE=Hip-Hop
TTITLE0=나란 놈은 답은 너다 Prologue
TTITLE1=나란 놈은 답은 너다 (Feat. 하림)
TTITLE2=TV를 껐네... (Feat. T윤미래, 권정열 Of 10cm)
TTITLE3=Serenade (Feat. 개코 Of Dynamic Duo, Windy City)
TTITLE4=회상 (Feat. 백지영)
TTITLE5=나 그대에게 모두 드리리 (Feat. 정인)
TTITLE6=죽기 전까지 날아야 하는 새 (To. Bizzy) (Feat. 강산에, Bizzy)
TTITLE7=Asura Balbalta
TTITLE8=격산타우 (Feat. 국카스텐)
TTITLE9=강남 사짜 (Feat. Pobi)
TTITLE10=Am I? (Feat. Bizzy, B-Free
TTITLE11=독기
TTITLE12=Grand Final (Planet Shiver Mix)
EXTD=
EXTT0=
EXTT1=
EXTT2=
EXTT3=
EXTT4=
EXTT5=
EXTT6=
EXTT7=
EXTT8=
EXTT9=
EXTT10=
EXTT11=
EXTT12=
PLAYORDER=
